<svg width="349" height="48" viewBox="0 0 349 48" fill="none" xmlns="http://www.w3.org/2000/svg">
<path d="M30.4062 35.125H11.3438L7.0625 47H0.875L18.25 1.5H23.5L40.9062 47H34.75L30.4062 35.125ZM13.1562 30.1875H28.625L20.875 8.90625L13.1562 30.1875ZM74.4062 6.4375H59.7812V47H53.8125V6.4375H39.2188V1.5H74.4062V6.4375ZM113.875 41.0312C112.333 43.2396 110.177 44.8958 107.406 46C104.656 47.0833 101.448 47.625 97.7812 47.625C94.0729 47.625 90.7812 46.7604 87.9062 45.0312C85.0312 43.2812 82.8021 40.8021 81.2188 37.5938C79.6562 34.3854 78.8542 30.6667 78.8125 26.4375V22.4688C78.8125 15.6146 80.4062 10.3021 83.5938 6.53125C86.8021 2.76042 91.3021 0.875 97.0938 0.875C101.844 0.875 105.667 2.09375 108.562 4.53125C111.458 6.94792 113.229 10.3854 113.875 14.8438H107.875C106.75 8.82292 103.167 5.8125 97.125 5.8125C93.1042 5.8125 90.0521 7.22917 87.9688 10.0625C85.9062 12.875 84.8646 16.9583 84.8438 22.3125V26.0312C84.8438 31.1354 86.0104 35.1979 88.3438 38.2188C90.6771 41.2188 93.8333 42.7188 97.8125 42.7188C100.062 42.7188 102.031 42.4688 103.719 41.9688C105.406 41.4688 106.802 40.625 107.906 39.4375V29.2188H97.375V24.3438H113.875V41.0312ZM123.125 43.9688C123.125 42.9688 123.417 42.1354 124 41.4688C124.604 40.8021 125.5 40.4688 126.688 40.4688C127.875 40.4688 128.771 40.8021 129.375 41.4688C130 42.1354 130.312 42.9688 130.312 43.9688C130.312 44.9271 130 45.7292 129.375 46.375C128.771 47.0208 127.875 47.3438 126.688 47.3438C125.5 47.3438 124.604 47.0208 124 46.375C123.417 45.7292 123.125 44.9271 123.125 43.9688Z" fill="#367E34"/>
<path d="M150.594 32.6562L151.469 38.6562L152.75 33.25L161.75 1.5H166.812L175.594 33.25L176.844 38.75L177.812 32.625L184.875 1.5H190.906L179.875 47H174.406L165.031 13.8438L164.312 10.375L163.594 13.8438L153.875 47H148.406L137.406 1.5H143.406L150.594 32.6562ZM258.281 28.5938H247.594V47H241.562V1.5H256.625C261.75 1.5 265.688 2.66667 268.438 5C271.208 7.33333 272.594 10.7292 272.594 15.1875C272.594 18.0208 271.823 20.4896 270.281 22.5938C268.76 24.6979 266.635 26.2708 263.906 27.3125L274.594 46.625V47H268.156L258.281 28.5938ZM247.594 23.6875H256.812C259.792 23.6875 262.156 22.9167 263.906 21.375C265.677 19.8333 266.562 17.7708 266.562 15.1875C266.562 12.375 265.719 10.2188 264.031 8.71875C262.365 7.21875 259.948 6.45833 256.781 6.4375H247.594V23.6875ZM287.062 42.0938H308.625V47H281.031V1.5H287.062V42.0938ZM315.469 47V1.5H328.312C332.271 1.5 335.771 2.375 338.812 4.125C341.854 5.875 344.198 8.36458 345.844 11.5938C347.51 14.8229 348.354 18.5312 348.375 22.7188V25.625C348.375 29.9167 347.542 33.6771 345.875 36.9062C344.229 40.1354 341.865 42.6146 338.781 44.3438C335.719 46.0729 332.146 46.9583 328.062 47H315.469ZM321.469 6.4375V42.0938H327.781C332.406 42.0938 336 40.6562 338.562 37.7812C341.146 34.9062 342.438 30.8125 342.438 25.5V22.8438C342.438 17.6771 341.219 13.6667 338.781 10.8125C336.365 7.9375 332.927 6.47917 328.469 6.4375H321.469Z" fill="black"/>
<path d="M232.594 25.7188C232.594 30.1771 231.844 34.0729 230.344 37.4062C228.844 40.7188 226.719 43.25 223.969 45C221.219 46.75 218.01 47.625 214.344 47.625C210.76 47.625 207.583 46.75 204.812 45C202.042 43.2292 199.885 40.7188 198.344 37.4688C196.823 34.1979 196.042 30.4167 196 26.125V22.8438C196 18.4688 196.76 14.6042 198.281 11.25C199.802 7.89583 201.948 5.33333 204.719 3.5625C207.51 1.77083 210.698 0.875 214.281 0.875C217.927 0.875 221.135 1.76042 223.906 3.53125C226.698 5.28125 228.844 7.83333 230.344 11.1875C231.844 14.5208 232.594 18.4062 232.594 22.8438V25.7188ZM226.625 22.7812C226.625 17.3854 225.542 13.25 223.375 10.375C221.208 7.47917 218.177 6.03125 214.281 6.03125C210.49 6.03125 207.5 7.47917 205.312 10.375C203.146 13.25 202.031 17.25 201.969 22.375V25.7188C201.969 30.9479 203.062 35.0625 205.25 38.0625C207.458 41.0417 210.49 42.5312 214.344 42.5312C218.219 42.5312 221.219 41.125 223.344 38.3125C225.469 35.4792 226.562 31.4271 226.625 26.1562V22.7812Z" fill="#367E34"/>
</svg>
